<mxfile host="app.diagrams.net" modified="2024-02-02T06:27:52.883Z" agent="Mozilla/5.0 (Windows NT 10.0; Win64; x64) AppleWebKit/537.36 (KHTML, like Gecko) Chrome/121.0.0.0 Safari/537.36 Edg/121.0.0.0" version="22.1.18" etag="Lkgj7ZtgN53yu1kRL6Sv" type="github">
  <diagram name="第 1 页" id="j1D8Nh17YaTCKUXCMJtL">
    <mxGraphModel>
      <root>
        <mxCell id="0" />
        <mxCell id="1" parent="0" />
      </root>
    </mxGraphModel>
  </diagram>
</mxfile>
